<svg version="1" xmlns="http://www.w3.org/2000/svg" width="682.667" height="682.667" viewBox="0 0 512.000000 512.000000"><path d="M231 100.2c-46.5 4.3-87.3 22-107.9 46.8-5.5 6.5-6 7.7-3.6 8.6 2.6 1 1.7 2.3-2.1 3-3.5.6-3.6.8-3.1 4 .5 2.9.3 3.4-1.4 3.4-2.5 0-5.2 5.8-6.9 14.6-.9 4.4-.9 6.7-.1 8.1.8 1.5.7 2.5-.4 3.9-1.8 2.3-2 13.1-.4 20.6 1.8 8.8 6.7 17.8 13 24.1 19.1 19.1 55.4 19.5 88.1 1.1 21.7-12.2 44.5-37.1 56.8-61.9 8.9-18 10-24.4 4.3-25.3-2.6-.4-4.5 2.3-11.1 15.6-15.4 30.9-39.6 55.6-66.4 67.7-5.7 2.5-8.8 4.5-9.2 5.8-.2 1-1 1.6-1.5 1.2-.6-.3-.8-1.1-.5-1.7.5-.8-.5-.9-3.2-.4-21.3 3.6-37.4.2-48.1-10.2-10.1-9.7-12.6-24.1-7-39.4 4.6-12.5 14.9-25.6 31.2-39.7 25-21.7 44.6-31.5 75-37.5 37.8-7.4 74.5-3.7 156.6 15.8 31.8 7.6 42.7 9.1 59.4 8.3 14.3-.7 22.2-2.5 33.2-7.8 6.1-2.9 8.7-4.7 9.8-7 1.3-2.4 1.4-3.4.4-4.5-1.6-1.9-3.8-1.8-14.9.8-7.4 1.6-12.8 2.1-24.5 2.2-16.2 0-26.2-1.2-75.5-9-69.9-11-108.6-14.2-140-11.2z"/><path d="M353.4 137.1c-14 8.8-44 44.4-72.3 85.6l-10.3 15.1-25.2 8.2c-51.7 16.9-83.9 30.5-93.2 39.5-4.8 4.6-5.5 7.8-2.2 9.9 1.4.8 5.4-.8 20.5-8.6 25.6-13.1 49.9-22.5 78-30.1 8-2.1 9.1-2.3 8.3-.8-.5.9-9.1 11.9-19.2 24.6C173.4 361.2 141 390.4 105 400.2c-11.1 3-30.3 3.2-39.5.4-8.4-2.5-17-7.3-22.2-12.3-2.4-2.4-5.2-4.3-6.1-4.3-2.4 0-6.2 2.8-6.2 4.6 0 2.2 10.3 12.2 13.4 13 1.4.3 2.6 1 2.6 1.5 0 1.4 9.4 5.7 17.7 8.1 10.3 3 36 3.2 49.6.5 56.2-11.3 108.2-55.6 162.6-138.4 6.9-10.6 14-21.3 15.6-24 2.8-4.4 3.6-4.9 10.5-7.1 7-2.2 42.8-12.2 43.7-12.2.2 0-2.5 3.7-6 8.2-11.1 14.5-16.4 24.2-15.1 28 .7 2.2 6 4.8 9.7 4.8 3.2 0 5.4-2.6 12.8-15.9 7.1-12.7 14.6-21.4 27.7-32.3 4.6-3.9 8.9-8.1 9.5-9.5 1-2.2.8-2.8-1.2-4.4-1.3-1.1-3.4-1.9-4.7-1.9-1.3 0-11.2 3.1-21.9 7-16.6 5.9-39.1 12.8-49.9 15.4l-2.8.7 6.3-11.8c12.3-23.1 25.4-43.5 42.4-65.8 10.1-13.2 11.9-16.1 11-17.5-1.2-1.9-6.2-1-11.1 2.1z"/><path d="M44.5 336.7c-4.1.9-7.4 2.5-7.2 3.6.1.6-.7 1.3-1.8 1.5-5.8 1.2-10.6 9.7-11.3 19.9l-.5 7.3h3.1c2.6 0 3.1-.5 3.7-3 .4-1.6 1.4-3.4 2.2-3.9 1.1-.6 1.2-1 .4-1.5-.6-.4-1.1-1.5-1.1-2.5 0-2.2 4.6-3.4 7.3-1.9 2 1 5.7 8.8 5.7 11.9 0 4.2 11.9 3.2 16.8-1.4 4.2-3.9 5.5-7.5 4.1-11-1-2.4-1-3.2-.1-3.5.7-.2 1.2-1.1 1.2-2-.1-2-2.9-7.3-3-5.5 0 .7-2.2 2.3-4.9 3.6l-4.9 2.5-2.1-2.9c-2.6-3.5-2.6-4.1-.1-6.4 1.8-1.7 2.6-1.7 6.3-.8l4.2 1.1-2.3-1.9c-3.9-3.1-10.3-4.4-15.7-3.2zm3.7 13.9c1 2.1.9 2.7-.3 3.5-.8.5-1.8.7-2.3.6-1.7-.5-2.9-3.4-2.3-5.1 1-2.4 3.6-1.9 4.9 1zm12.2 5.8c.3 1.3.9 3.1 1.2 4 .5 1.3-.1 1.6-3.5 1.6s-4.3-.4-5.3-2.4c-1.6-3.7-.4-5.6 3.6-5.6 2.7 0 3.5.5 4 2.4zM0 437.3v48.2l2.3 1c1.7.8 2.3 2 2.5 5.3.2 2.3.6 4.2 1 4.2s2.5 2.2 4.7 5c2.5 3.1 4.7 5 6 5 2.6 0 4.5 1.8 4.5 4.2 0 1.7 9.4 1.8 235 1.8s235-.1 235-1.8c0-2.4 1.9-4.2 4.5-4.2 1.3 0 3.5-1.9 6-5 2.2-2.8 4.3-5 4.7-5 .4 0 .8-1.9 1-4.3.2-3.2.8-4.4 2.6-5.2l2.2-1V389h-8v44.8c0 43.5-.1 44.8-2 46-1.2.7-2.2 2.8-2.6 5.2-.4 2.2-1.3 4.5-2 5.1-.8.6-1.4 1.5-1.4 2 0 1.5-4.8 5.7-7.7 6.6-1.5.5-3.2 1.9-3.8 3.1l-1 2.2h-455l-1-2.2c-.6-1.2-2.3-2.6-3.8-3.1-2.9-.9-7.7-5.1-7.7-6.6 0-.5-.6-1.4-1.4-2-.7-.6-1.6-2.9-2-5.1-.4-2.4-1.4-4.5-2.6-5.2-1.9-1.2-2-2.5-2-46V389H0v48.3z"/></svg>